<svg viewBox="0 0 32 32" xml:space="preserve" xmlns="http://www.w3.org/2000/svg" enable-background="new 0 0 32 32"><path d="M15.191 19.749a.997.997 0 0 1-.707-.293l-2.5-2.5a1 1 0 1 1 1.413-1.415l1.794 1.794 4.792-4.791a1 1 0 1 1 1.414 1.414l-5.499 5.498a.997.997 0 0 1-.707.293z" fill="#ffffff" class="fill-000000"></path><path d="M24.719 29H7.28A4.286 4.286 0 0 1 3 24.719V7.28C3 4.921 4.92 3 7.281 3H24.72C27.079 3 29 4.92 29 7.281V24.72C29 27.079 27.08 29 24.719 29zM7.28 5A2.284 2.284 0 0 0 5 7.281V24.72A2.284 2.284 0 0 0 7.281 27H24.72A2.284 2.284 0 0 0 27 24.719V7.28A2.284 2.284 0 0 0 24.719 5H7.28z" fill="#ffffff" class="fill-000000"></path></svg>